<svg version="1.0" xmlns="http://www.w3.org/2000/svg"
 width="25.000000pt" height="25.000000pt" viewBox="0 0 128.000000 128.000000"
 preserveAspectRatio="xMidYMid meet">

<g transform="translate(0.000000,128.000000) scale(0.100000,-0.100000)"
fill="#091F5B" stroke="none">
<path d="M48 1117 c-15 -12 -32 -35 -38 -50 -16 -46 -13 -819 4 -860 29 -70 3
-67 626 -67 623 0 597 -3 626 67 20 47 20 819 0 866 -29 70 -3 67 -628 67
l-563 0 -27 -23z m1140 -96 c5 -34 -25 -107 -62 -149 -44 -51 -409 -340 -451
-358 -51 -21 -78 -7 -277 152 -204 161 -253 207 -277 254 -21 40 -35 106 -26
120 4 7 198 9 548 8 l542 -3 3 -24z m-850 -425 c170 -135 253 -186 302 -186
49 0 132 51 302 186 95 75 190 153 211 172 l37 36 -2 -284 -3 -285 -545 0
-545 0 -3 285 -2 284 37 -36 c21 -19 116 -97 211 -172z"/>
</g>
</svg>
