<svg version="1.0" xmlns="http://www.w3.org/2000/svg"
 width="25.000000pt" height="25.000000pt" viewBox="0 0 128.000000 128.000000"
 preserveAspectRatio="xMidYMid meet">

<g transform="translate(0.000000,128.000000) scale(0.100000,-0.100000)"
fill="#091F5B" stroke="none">
<path d="M252 1211 c-45 -33 -125 -126 -180 -208 -35 -53 -35 -55 -25 -111 66
-355 490 -779 845 -845 l58 -11 71 49 c93 63 206 173 215 209 9 39 -16 70
-109 131 -92 62 -171 102 -215 111 -31 6 -37 3 -81 -45 -26 -28 -53 -51 -60
-51 -35 0 -154 76 -209 134 -54 56 -122 166 -122 198 0 6 23 33 51 59 48 44
51 50 45 81 -13 67 -141 280 -188 312 -32 23 -49 20 -96 -13z m111 -133 c25
-40 56 -94 68 -121 l23 -47 -52 -53 c-30 -30 -52 -62 -52 -74 0 -11 20 -61 45
-111 59 -117 151 -212 262 -270 43 -22 94 -43 114 -47 34 -6 38 -4 86 48 l50
55 79 -42 c94 -50 164 -96 164 -106 0 -13 -90 -98 -154 -147 -69 -51 -78 -52
-207 -2 -179 69 -413 268 -537 458 -60 92 -114 210 -127 282 -6 31 -1 42 38
95 50 65 134 154 147 154 5 0 29 -33 53 -72z"/>
</g>
</svg>
