<svg version="1.0" xmlns="http://www.w3.org/2000/svg"
 width="25.000000pt" height="25.000000pt" viewBox="0 0 128.000000 128.000000"
 preserveAspectRatio="xMidYMid meet">

<g transform="translate(0.000000,128.000000) scale(0.100000,-0.100000)"
fill="#091F5B" stroke="none">
<path d="M551 1269 c-129 -25 -257 -125 -313 -245 -60 -128 -61 -255 -4 -380
28 -60 359 -598 386 -628 11 -11 25 -16 36 -12 23 8 364 576 401 667 130 321
-162 666 -506 598z m188 -80 c93 -21 188 -99 236 -196 33 -65 45 -183 26 -260
-7 -30 -77 -158 -184 -335 -94 -158 -172 -286 -173 -285 -1 1 -77 124 -170
272 -92 149 -176 294 -187 324 -60 175 21 371 186 455 84 42 159 49 266 25z"/>
<path d="M545 1031 c-171 -79 -166 -333 7 -405 48 -20 128 -20 176 0 176 73
176 335 0 408 -50 21 -134 20 -183 -3z m165 -70 c106 -56 102 -215 -6 -266
-105 -49 -224 36 -211 151 12 106 123 166 217 115z"/>
</g>
</svg>
